<svg width="270" height="158" viewBox="0 0 270 158" fill="none" xmlns="http://www.w3.org/2000/svg">
<path d="M2.98902 98.2779L166.421 3.61741C172.588 -0.0770666 181.907 -0.465125 187.239 2.75022L266.991 47.7194C267.784 48.1672 268.449 48.8274 268.916 49.6319C269.383 50.4363 269.635 51.3559 269.647 52.2958C269.658 53.2356 269.429 54.1616 268.982 54.9783C268.535 55.7951 267.887 56.4728 267.105 56.9418L105.215 153.956C99.0503 157.651 89.7289 158.041 84.3969 154.824L3.02894 108.603C2.14008 108.098 1.3976 107.354 0.879004 106.449C0.360408 105.544 0.0847143 104.51 0.080635 103.456C0.0765557 102.402 0.344266 101.366 0.855838 100.456C1.36741 99.5461 2.10409 98.796 2.98902 98.2838L2.98902 98.2779Z" fill="#FCDE8F"/>
<g opacity="0.85">
<path d="M3.28187 98.1767L166.13 3.8588C172.297 0.162346 181.62 -0.223732 186.948 2.99161L266.7 47.9589L266.717 47.9707C266.912 48.086 267.074 48.253 267.187 48.4547C267.299 48.6564 267.359 48.8857 267.359 49.1191C267.359 49.3525 267.299 49.5817 267.187 49.7834C267.074 49.9851 266.912 50.1521 266.717 50.2674L105.017 146.926C99.2366 150.392 90.4989 150.757 85.5035 147.741L3.43776 100.353C3.25648 100.249 3.10288 100.1 2.99083 99.9187C2.87877 99.7376 2.81179 99.5303 2.79594 99.3156C2.78008 99.1008 2.81585 98.8853 2.90002 98.6886C2.98419 98.4918 3.11414 98.32 3.27806 98.1886C3.27806 98.1886 3.27616 98.1827 3.28187 98.1767Z" fill="#F68A2A"/>
<path d="M3.28187 98.1767L166.13 3.8588C172.297 0.162346 181.62 -0.223732 186.948 2.99161L266.7 47.9589L266.717 47.9707C266.912 48.086 267.074 48.253 267.187 48.4547C267.299 48.6564 267.359 48.8857 267.359 49.1191C267.359 49.3525 267.299 49.5817 267.187 49.7834C267.074 49.9851 266.912 50.1521 266.717 50.2674L105.017 146.926C99.2366 150.392 90.4989 150.757 85.5035 147.741L3.43776 100.353C3.25648 100.249 3.10288 100.1 2.99083 99.9187C2.87877 99.7376 2.81179 99.5303 2.79594 99.3156C2.78008 99.1008 2.81585 98.8853 2.90002 98.6886C2.98419 98.4918 3.11414 98.32 3.27806 98.1886C3.27806 98.1886 3.27616 98.1827 3.28187 98.1767Z" fill="#F68A2A"/>
</g>
<path d="M90.1192 62.7312L84.9711 59.695C84.5959 59.4187 84.2886 59.0579 84.0732 58.6408C83.8577 58.2237 83.74 57.7615 83.7292 57.2905V54.6822C83.7292 53.7653 84.2901 53.3373 84.9711 53.7449L90.1192 56.7811C90.4989 57.0528 90.8096 57.4126 91.0256 57.8307C91.2416 58.2488 91.3566 58.7133 91.3611 59.1856V61.7938C91.3611 62.6904 90.8002 63.1183 90.1192 62.7312Z" fill="#CECB5F"/>
<path d="M83.3085 54.1521C83.3085 54.1521 84.0097 53.5612 84.3502 53.5816C84.6907 53.6019 83.9295 54.7023 83.9295 54.7023L83.3085 54.1521Z" fill="#CECB5F"/>
<path d="M89.8989 63.2608C89.8989 63.2608 90.8203 63.1182 91.0607 62.6903C91.1809 62.3898 91.1809 62.0534 91.0607 61.7529C91.0607 61.7529 89.8788 62.3439 89.8989 63.2608Z" fill="#EA990A"/>
<path d="M89.358 63.1385L84.19 60.1023C83.8148 59.8261 83.5074 59.4653 83.292 59.0481C83.0766 58.631 82.9588 58.1689 82.948 57.6979V55.11C82.948 54.193 83.5089 53.7651 84.19 54.1726L89.358 57.1477C89.7444 57.4205 90.062 57.7824 90.2847 58.2038C90.5075 58.6252 90.6293 59.0942 90.64 59.5725V62.1808C90.64 63.0978 90.0391 63.5257 89.358 63.1385Z" fill="#DEEFFF"/>
<path d="M133.447 105.604L118.243 96.5366C119.136 94.9689 120.541 93.7685 122.212 93.1433C123.884 92.5181 125.718 92.5074 127.397 93.1132C130.957 94.0295 134.39 95.3988 137.613 97.1887L133.447 105.604Z" fill="#7C6B7C"/>
<path d="M127.357 103.22C127.357 109.333 123.651 116.567 119.104 119.237C114.557 121.906 110.851 119.053 110.851 112.879C110.851 106.705 114.557 99.5321 119.124 96.8627C123.691 94.1933 127.357 97.0461 127.357 103.22Z" fill="#282027"/>
<path d="M113.956 119.807L119.285 122.945L129.3 99.308L123.752 96.0884L113.956 119.807Z" fill="#282027"/>
<path d="M132.706 106.358C132.706 112.472 129 119.705 124.453 122.375C119.906 125.044 116.2 122.212 116.2 116.038C116.2 109.863 119.906 102.691 124.473 99.9396C129.04 97.1887 132.706 100.184 132.706 106.358Z" fill="#3D333B"/>
<path d="M130.382 107.724C130.339 109.988 129.772 112.21 128.728 114.21C127.684 116.21 126.192 117.932 124.373 119.237C121.087 121.152 118.363 119.115 118.363 114.672C118.405 112.408 118.971 110.185 120.015 108.185C121.059 106.184 122.552 104.463 124.373 103.159C127.738 101.244 130.402 103.282 130.382 107.724Z" fill="white"/>
<path d="M127.798 109.415C127.776 110.576 127.483 111.716 126.943 112.74C126.403 113.764 125.632 114.642 124.693 115.304C123.03 116.282 121.668 115.304 121.668 112.981C121.681 111.826 121.962 110.691 122.488 109.668C123.013 108.645 123.769 107.762 124.693 107.092C126.436 106.052 127.798 107.153 127.798 109.415Z" fill="#3D333B"/>
<path d="M127.277 109.72C127.256 110.685 127.011 111.631 126.562 112.481C126.113 113.331 125.473 114.061 124.693 114.611C123.311 115.446 122.169 114.611 122.169 112.573C122.198 111.631 122.442 110.709 122.879 109.878C123.317 109.047 123.938 108.331 124.693 107.785C126.155 106.97 127.297 107.825 127.277 109.72Z" fill="#7C6B7C"/>
<path d="M196.645 68.4978L181.441 59.4504C182.335 57.882 183.738 56.6798 185.409 56.0511C187.08 55.4224 188.914 55.4067 190.596 56.0067C194.156 56.923 197.588 58.2923 200.812 60.0821L196.645 68.4978Z" fill="#7C6B7C"/>
<path d="M209.285 36.0981C209.285 36.0981 191.037 21.1006 176.574 17.7587C170.565 16.3731 164.074 19.4093 159.067 19.7964L153.658 25.1556L192.499 49.5266L208.404 40.846C209.886 40.0309 210.827 36.9743 209.285 36.0981Z" fill="#FD9F02"/>
<path d="M87.2747 64.952C90.8405 68.8525 94.8791 72.2761 99.2934 75.1406C115.759 86.8981 127.457 86.0219 127.457 86.0219L136.572 69.7203C126.997 65.2985 112.674 58.7778 106.525 57.6163C100.375 56.4548 92.3025 61.223 87.2747 64.952Z" fill="#6A809C"/>
<path d="M101.216 42.8838L85.9326 61.2232C85.9326 61.2232 84.851 61.9975 87.2747 64.9929C92.3026 61.3454 100.395 56.4753 106.525 57.6572C112.654 58.839 126.997 65.2782 136.572 69.7815L139.035 65.2986L101.216 42.8838Z" fill="#49586B"/>
<path d="M101.216 42.884C101.216 42.884 102.899 45.3496 112.875 52.4204C122.169 58.9003 139.035 65.2987 139.035 65.2987C145.988 59.9658 153.238 55.0467 160.749 50.5661C170.304 45.1662 187.01 38.075 187.01 38.075L159.067 19.8782C159.067 19.8782 151.695 12.5221 139.035 19.2262C134.308 21.7326 125.735 27.0917 113.716 34.5294C109.269 37.3006 104.782 40.3164 101.216 42.884Z" fill="#FDB702"/>
<path d="M102.398 44.9214C102.398 44.9214 110.671 39.6845 122.69 32.6951C134.709 25.7058 150.113 16.7603 150.113 16.7603L151.575 17.2289C151.575 17.2289 145.125 21.1617 139.075 24.5443C134.168 27.2952 103.019 45.8587 103.019 45.8587L102.398 44.9214Z" fill="white"/>
<path d="M131.984 62.4255C131.984 62.4255 140.337 57.1479 152.256 50.3216C164.175 43.4952 179.699 34.3052 179.699 34.3052L181.161 34.7331C181.161 34.7331 174.771 38.8085 168.662 42.1096C163.754 44.8605 132.605 63.4444 132.605 63.4444L131.984 62.4255Z" fill="white"/>
<path d="M183.044 36.0776L191.057 37.504L199.209 42.0481C199.209 42.0481 183.345 40.0104 181.742 39.2565C180.14 38.5025 183.044 36.0776 183.044 36.0776Z" fill="#FD9F02"/>
<path d="M190.556 66.1134C190.556 72.2265 186.85 79.4604 182.303 82.1298C177.756 84.7992 174.05 81.9668 174.05 75.7925C174.05 69.6182 177.756 62.4455 182.323 59.7761C186.89 57.1067 190.556 59.9391 190.556 66.1134Z" fill="#282027"/>
<path d="M177.155 82.7004L182.483 85.8588L192.499 62.201L186.95 58.9814L177.155 82.7004Z" fill="#282027"/>
<path d="M195.904 69.3739C195.904 75.487 192.198 82.7209 187.651 85.3903C183.104 88.0597 179.398 85.2069 179.418 79.0326C179.438 72.8584 183.104 65.6857 187.671 63.0163C192.238 60.3469 195.924 63.0978 195.904 69.3739Z" fill="#3D333B"/>
<path d="M193.58 70.6372C193.536 72.901 192.969 75.1225 191.925 77.1224C190.881 79.1222 189.39 80.8445 187.571 82.1502C184.306 84.0657 181.562 82.028 181.562 77.5858C181.606 75.3219 182.174 73.1005 183.217 71.1006C184.261 69.1007 185.753 67.3785 187.571 66.0727C190.936 64.1369 193.6 66.195 193.58 70.6372Z" fill="white"/>
<path d="M190.996 72.3284C190.976 73.4838 190.69 74.6182 190.162 75.6409C189.633 76.6635 188.876 77.546 187.952 78.2174C186.289 79.1955 184.927 78.2174 184.927 75.8741C184.945 74.7213 185.231 73.5892 185.76 72.5695C186.289 71.5499 187.046 70.6714 187.972 70.0055C189.634 69.007 190.996 70.0666 190.996 72.3284Z" fill="#3D333B"/>
<path d="M190.496 72.614C190.483 73.5787 190.245 74.5265 189.803 75.3801C189.361 76.2336 188.727 76.9686 187.952 77.5248C186.569 78.3399 185.428 77.5248 185.448 75.589C185.458 74.6261 185.693 73.6793 186.131 72.8259C186.57 71.9725 187.2 71.2366 187.972 70.6781C189.354 69.8631 190.496 70.7393 190.496 72.614Z" fill="#7C6B7C"/>
<path d="M209.285 36.0981C205.679 36.7706 202.434 42.1094 195.944 40.846C194.121 40.4996 188.573 38.36 183.925 38.686C179.278 39.0121 176.394 40.8868 172.027 43.495C168.561 45.5327 156.262 52.6647 146.828 58.8186C141.559 62.2827 137.914 64.3204 136.532 66.6434C135.59 68.2532 132.225 76.241 128.96 82.456C128.357 83.706 127.596 84.8705 126.696 85.9201L66.8429 74.6719C64.3642 77.5844 62.4843 80.9725 61.3143 84.6363C60.493 87.0816 57.9891 93.1743 59.1709 98.6965C59.9253 101.667 61.2829 104.443 63.1563 106.847C65.0296 109.252 67.3773 111.23 70.0479 112.655C91.8819 125.533 104.221 122.578 113.315 117.423C113.315 109.272 118.243 99.7561 124.292 96.2105C130.342 92.6649 135.189 96.4143 135.229 104.565L177.616 79.6643C177.896 77.5044 179.018 70.5354 180.2 68.4977C182.543 64.4223 188.493 58.7167 191.117 58.9816C199.55 59.8374 196.064 68.8441 197.507 67.9883L200.812 66.0932C207.422 62.2216 210.827 54.5394 211.869 49.7915C212.39 46.9591 212.209 38.0543 209.285 36.0981Z" fill="#FD9F02"/>
<path d="M198.488 65.9708C198.488 56.903 193.02 52.7257 186.289 56.6789C183.061 58.7516 180.39 61.6086 178.517 64.9927L174.991 67.3361C168.621 71.4115 141.179 87.4279 131.063 93.2965C129.809 92.6876 128.418 92.4307 127.034 92.5525C125.65 92.6743 124.323 93.1704 123.191 93.9893C116.46 97.9221 110.992 108.518 110.952 117.647L111.893 117.097L113.235 116.241C113.235 116.241 114.597 115.63 114.597 115.548C114.597 107.988 118.604 99.6949 124.292 96.4345C125.293 95.8095 126.413 95.4067 127.578 95.2527L127.297 95.4157L130.843 96.1696C132.485 97.5349 133.427 100.245 133.427 104.157C133.427 104.157 133.427 104.32 133.427 104.402L135.43 103.22C135.528 100.501 134.831 97.8133 133.427 95.4972L160.629 80.0106C164.375 77.9729 175.172 72.8379 175.172 72.8379C174.417 75.2629 174.038 77.7929 174.05 80.3367L174.991 79.7865L176.334 78.9918C176.334 78.9918 177.696 78.3805 177.696 78.2989C177.731 75.2078 178.343 72.1516 179.498 69.2923L179.919 69.0478L183.344 63.9739L187.972 59.5113C188.733 59.0222 187.291 59.7558 184.646 61.2841C185.477 60.5042 186.391 59.8208 187.371 59.2464C192.959 55.9657 197.086 59.2464 197.086 66.8674C197.086 66.8674 196.505 67.1119 196.505 67.1934L198.488 65.9708Z" fill="#FDB702"/>
<path d="M124.292 96.2105C118.283 99.7561 113.355 109.231 113.315 117.423L114.157 116.934L115.359 116.221V115.997C115.359 109.211 119.365 101.346 124.413 98.4112C129.461 95.4769 133.467 98.615 133.447 105.38V105.604L135.229 104.565C135.189 96.4143 130.322 92.6853 124.292 96.2105Z" fill="#A09940"/>
<path d="M162.752 22.2011C166.397 19.882 170.765 19.0385 174.991 19.8373C179.926 21.3449 184.587 23.6572 188.793 26.684L177.335 31.3707L162.752 22.2011Z" fill="#FDB702"/>
<path d="M187.491 59.1852C181.482 62.7104 176.554 72.2062 176.514 80.3977L177.355 79.9087L178.557 79.1955V78.951C178.557 72.1858 182.563 64.3202 187.611 61.3859C192.659 58.4516 196.665 61.5693 196.645 68.3549V68.5587L198.428 67.5194C198.388 59.3278 193.52 55.5785 187.491 59.1852Z" fill="#A09940"/>
<path d="M85.9326 61.2231C85.9326 61.2231 78.4409 66.6231 68.0447 73.7143C62.9167 77.1988 61.1139 87.0409 73.1527 95.0695C87.1745 104.443 97.9313 103.424 106.885 98.126C116.5 92.4204 127.417 86.1035 127.417 86.1035C127.417 86.1035 120.006 86.1035 105.243 77.158C98.0624 72.8534 91.554 67.4826 85.9326 61.2231V61.2231Z" fill="#FD9F02"/>
<path d="M92.1824 99.3488L118.443 84.1475L121.809 85.5331C121.809 85.5331 99.7342 99.7155 92.1824 99.3488Z" fill="#FDB702"/>
<path d="M87.1345 63.3833C87.1345 63.3833 74.6751 71.5341 69.8876 75.6095C68.5256 76.8065 67.5613 78.4031 67.1273 80.18C66.6933 81.9569 66.8109 83.827 67.4639 85.5332L94.8666 69.0278L87.1345 63.3833Z" fill="#FDB702"/>
<path d="M133.988 84.9626C133.733 85.1167 133.437 85.1847 133.141 85.1568C132.846 85.1289 132.567 85.0066 132.345 84.8073C132.122 84.6081 131.967 84.3423 131.903 84.048C131.838 83.7537 131.867 83.4462 131.984 83.1695C134.468 77.2601 139.156 66.501 141.179 65.1765C143.823 63.4444 152.937 57.9019 164.095 51.1774C172.327 46.2258 179.639 41.9059 183.084 42.884C185.812 44.2265 188.396 45.8517 190.796 47.7337C191.112 47.9761 191.365 48.2934 191.532 48.658C191.7 49.0226 191.777 49.4234 191.757 49.8254C191.738 50.2274 191.622 50.6184 191.419 50.9642C191.217 51.3099 190.934 51.6 190.596 51.8091L133.988 84.9626Z" fill="#3D333B"/>
<path d="M149.592 16.3936C149.592 16.3936 160.749 22.6289 165.817 26.0115C173.309 31.0243 183.345 36.6076 183.345 36.6076L194.802 39.603C191.698 37.6876 194.802 39.603 188.793 36.1797C180.24 31.2892 170.905 25.2372 169.383 24.2795C167.38 22.9753 163.253 20.8154 161.09 19.6946C157.518 17.8098 153.605 16.6865 149.592 16.3936V16.3936Z" fill="#6A809C"/>
<path d="M87.415 109.17C87.893 108.006 88.7138 107.02 89.7647 106.348C90.8156 105.677 92.045 105.353 93.2841 105.421C95.0767 105.52 96.8744 105.383 98.6325 105.014C101.611 104.645 104.482 103.653 107.066 102.1C109.289 100.755 109.489 103.057 109.229 103.934C108.746 105.533 107.883 106.988 106.716 108.168C105.549 109.348 104.114 110.217 102.539 110.699C97.4844 112.101 92.0992 111.557 87.415 109.17V109.17Z" fill="white"/>
<path d="M83.9696 101.284C85.9728 101.733 88.1962 102.242 89.5984 102.568L89.979 102.14C84.0305 100.706 78.3487 98.305 73.1528 95.0286C70.5461 93.2388 68.3019 90.9559 66.5425 88.3042L66.3021 89.2212C67.0387 90.5407 67.8829 91.7949 68.826 92.9705C71.6104 96.5569 80.5243 100.53 83.9696 101.284Z" fill="#3D333B"/>
<path d="M83.3286 103.139L88.1561 104.239L88.9974 103.261C87.455 102.935 85.3718 102.466 83.3887 101.936C78.8144 100.428 74.4768 98.2598 70.5086 95.4972C68.6084 94.1095 67.0797 92.2601 66.0617 90.1177L65.6811 91.5237C66.4152 92.7056 67.2533 93.8173 68.185 94.8452C71.1897 98.2278 79.9033 102.405 83.3286 103.139Z" fill="#3D333B"/>
<path d="M69.1065 99.532C67.3879 98.296 65.9753 96.6707 64.98 94.7842C64.9678 95.4755 65.103 96.1614 65.3761 96.7945C65.6493 97.4277 66.054 97.9932 66.5625 98.4521C68.321 100.087 70.2643 101.502 72.3515 102.67C75.468 104.409 78.6856 105.954 81.9865 107.296C82.5849 107.531 83.2303 107.617 83.8682 107.546C84.5061 107.476 85.118 107.25 85.6522 106.888C84.5104 106.623 83.2284 106.318 81.9865 105.992C77.4098 104.481 73.0716 102.305 69.1065 99.532V99.532Z" fill="#3D333B"/>
<path d="M69.8676 97.3721C68.0822 96.0651 66.5705 94.4096 65.4207 92.502L65.1403 93.5208C65.132 93.568 65.132 93.6163 65.1403 93.6634C65.8401 94.8244 66.6094 95.9404 67.4439 97.0053C70.2282 100.592 79.1621 104.586 82.5875 105.319L86.4735 106.195L87.4951 105.013C86.0729 104.708 84.3702 104.321 82.7077 103.872C78.1456 102.338 73.8221 100.149 69.8676 97.3721V97.3721Z" fill="#3D333B"/>
<path d="M67.4238 97.0054C66.5894 95.9406 65.82 94.8245 65.1203 93.6636C65.0246 94.0291 64.9774 94.406 64.98 94.7843C65.9753 96.6708 67.3879 98.2962 69.1065 99.5322C73.0681 102.327 77.4064 104.523 81.9865 106.053C83.2285 106.379 84.5105 106.685 85.6522 106.949C85.9458 106.752 86.2148 106.52 86.4535 106.257L82.6275 105.319C79.1421 104.586 70.2082 100.592 67.4238 97.0054Z" fill="#7C6B7C"/>
<path d="M83.3286 103.139C79.9033 102.405 71.1897 98.228 68.185 94.8454C67.2533 93.8176 66.4152 92.7059 65.6811 91.5239L65.4207 92.502C66.5705 94.4096 68.0822 96.0652 69.8676 97.3722C73.838 100.131 78.1751 102.299 82.7477 103.811C84.4103 104.26 86.1129 104.647 87.5352 104.952L88.1561 104.239L83.3286 103.139Z" fill="#7C6B7C"/>
<path d="M70.5086 95.4971C74.4745 98.274 78.8122 100.456 83.3887 101.977C85.3918 102.507 87.395 102.975 88.9975 103.302L89.5984 102.609C88.1962 102.283 86.0529 101.773 83.9696 101.325C80.5242 100.571 71.6104 96.5975 68.826 93.0111C67.8829 91.8354 67.0387 90.5812 66.3021 89.2617L66.0617 90.1583C67.0853 92.2859 68.6136 94.1207 70.5086 95.4971V95.4971Z" fill="#7C6B7C"/>
<path d="M63.4777 79.3994C63.4777 79.3994 63.2373 82.5782 63.2172 86.022C63.1081 88.0959 62.7516 90.1487 62.1556 92.1351C61.553 89.9818 61.1836 87.7679 61.0539 85.5329C61.3152 83.3066 62.1515 81.1903 63.4777 79.3994V79.3994Z" fill="white"/>
<path d="M63.4576 104.708C63.4576 104.708 63.4576 98.3704 67.3637 101.121C70.2622 103.231 73.316 105.112 76.4979 106.745C79.3824 108.131 81.4656 109.13 82.2869 110.658C82.8606 112.461 83.1447 114.346 83.1282 116.241C83.1282 116.241 80.404 116.098 71.1095 110.739C64.0986 106.786 63.4576 104.708 63.4576 104.708Z" fill="#3D333B"/>
<path d="M66.3822 102.079V105.89C66.3822 105.89 69.2466 107.927 71.5502 109.476C73.0526 110.454 78.7815 113.123 78.7815 113.123V109.476C78.7815 109.476 74.7753 107.622 71.5502 105.747C69.7308 104.672 68.0022 103.445 66.3822 102.079Z" fill="white"/>
<path d="M58.8704 96.292C58.608 99.5932 59.3567 102.896 61.0138 105.747C66.3918 112.95 74.0108 118.086 82.6275 120.317C96.1285 124.27 104.662 123.006 109.73 120.724C114.798 118.442 115.298 118.686 115.439 116.221C115.579 113.755 113.435 115.467 113.435 115.467C113.435 115.467 111.232 119.237 100.756 119.889C94.4481 120.092 88.1499 119.252 82.1066 117.403C76.4641 115.404 71.1849 112.471 66.4823 108.722C64.4137 107.324 62.6638 105.491 61.3507 103.347C60.0376 101.203 59.1918 98.797 58.8704 96.292Z" fill="#FD9F02"/>
<path d="M90.6399 114.387C90.5079 114.39 90.3789 114.428 90.2657 114.498C90.1525 114.567 90.0589 114.665 89.9943 114.782C89.9296 114.899 89.896 115.032 89.8969 115.166C89.8977 115.3 89.9328 115.432 89.9989 115.548C90.3514 116.232 90.8039 116.857 91.341 117.403C93.0637 119.033 100.956 119.135 101.857 118.299C102.075 117.97 102.198 117.586 102.215 117.19C102.232 116.794 102.142 116.4 101.953 116.053C101.765 115.706 101.486 115.418 101.148 115.221C100.809 115.024 100.424 114.926 100.035 114.937C97.2102 115.039 93.224 114.346 90.6399 114.387Z" fill="#3D333B"/>
<path d="M59.3913 91.0142C59.3913 91.0142 59.9722 93.7447 60.3728 94.8247C60.7734 95.9047 58.8705 96.2918 58.8705 96.2918C58.8813 94.5199 59.0556 92.7529 59.3913 91.0142V91.0142Z" fill="#3D333B"/>
<path d="M76.2375 100.551C75.9972 101.285 74.635 101.346 73.1728 100.673C71.7105 100.001 70.729 98.8394 70.9693 98.1058C71.2097 97.3723 72.5718 97.2907 74.0341 97.9632C75.4964 98.6356 76.4579 99.7971 76.2375 100.551Z" fill="white"/>
<path d="M84.3902 62.2829C84.3902 62.2829 85.3317 64.504 90.5598 68.661C95.788 72.8179 106.585 80.5612 113.776 83.4955C120.967 86.4298 125.594 88.2841 127.417 86.063C129.24 83.8419 138.434 64.9116 138.434 64.9116L137.373 64.4633C137.373 64.4633 127.578 83.8623 126.376 84.8404C125.174 85.8185 116.06 82.3951 99.8543 71.6564C93.7248 67.581 85.8325 61.1011 85.8325 61.1011L84.3902 62.2829Z" fill="#3D333B"/>
<path d="M101.216 42.8838L100.495 43.7396C104.461 47.4535 108.775 50.7636 113.375 53.6225C120.567 58.0036 137.733 65.9506 137.733 65.9506L138.434 64.9929C129.963 61.3341 121.757 57.0715 113.876 52.2369C109.478 49.3775 105.25 46.2542 101.216 42.8838V42.8838Z" fill="#3D333B"/>
<path d="M177.856 77.0356L134.428 102.527V105.013L135.069 104.626L178.397 79.1956L177.856 77.0356Z" fill="#FD9F02"/>
<path d="M157.584 56.5977V69.3741L139.035 80.2758C139.035 80.2758 139.035 75.4057 139.035 73.4291C139.121 71.8857 139.509 70.3752 140.177 68.9869C141.1 67.3131 142.432 65.9094 144.043 64.9115C149.031 61.7531 157.584 56.5977 157.584 56.5977Z" fill="#49586B"/>
<path d="M160.008 55.4565V68.3145L179.579 56.618C179.604 54.496 179.524 52.3741 179.338 50.2604C179.098 48.9766 178.437 45.105 178.437 45.105L160.008 55.4565Z" fill="#49586B"/>
<path d="M180.22 44.5752C180.22 44.5752 180.941 48.2023 181.141 49.5064C181.341 50.8106 181.441 55.6196 181.441 55.6196C181.441 55.6196 185.888 52.889 186.91 52.3592C187.932 51.8294 188.753 50.3215 186.069 48.2838C184.186 46.9418 182.233 45.7038 180.22 44.5752V44.5752Z" fill="#49586B"/>
<path d="M211.108 40.0718L210.827 40.2348C210.469 40.4748 210.176 40.8016 209.973 41.1858C209.77 41.57 209.664 41.9994 209.665 42.4355V45.3494C209.64 47.1154 209.506 48.8781 209.265 50.6271L211.929 48.9969C212.738 47.0711 212.995 44.9518 212.67 42.8838C212.62 42.3293 212.455 41.7919 212.186 41.3071C211.916 40.8223 211.549 40.4013 211.108 40.0718V40.0718Z" fill="#3D333B"/>
<path d="M195.924 58.2073C200.819 55.9051 205.511 53.1781 209.946 50.0565C210.804 49.3235 211.608 48.5266 212.35 47.6724C212.35 47.6724 213.071 48.7523 210.487 52.3591C206.621 55.8443 202.341 58.8222 197.747 61.2231C196.465 58.2277 195.924 58.2073 195.924 58.2073Z" fill="#FDB702"/>
<path d="M138.715 90.6885L133.467 87.7134C133.091 87.4395 132.784 87.0787 132.571 86.6607C132.359 86.2428 132.247 85.7795 132.245 85.309V82.6599C132.245 81.743 132.786 81.315 133.467 81.7022L138.715 84.7384C139.092 85.0124 139.401 85.3728 139.617 85.7904C139.833 86.208 139.949 86.6712 139.957 87.1429V89.7512C139.877 90.6681 139.316 91.096 138.715 90.6885Z" fill="#CECB5F"/>
<path d="M131.804 82.1098C131.804 82.1098 132.525 81.5189 132.866 81.5596C133.206 81.6004 132.425 82.6804 132.425 82.6804L131.804 82.1098Z" fill="#CECB5F"/>
<path d="M138.414 91.2387C138.414 91.2387 139.316 91.0961 139.576 90.6478C139.696 90.3473 139.696 90.0109 139.576 89.7104C139.576 89.7104 138.374 90.3014 138.414 91.2387Z" fill="#CECB5F"/>
<path d="M137.854 91.0957L132.706 88.0595C132.33 87.7887 132.021 87.4319 131.806 87.0178C131.59 86.6037 131.473 86.1439 131.464 85.6754V83.0672C131.464 82.1502 132.024 81.7223 132.706 82.1094L137.854 85.1456C138.232 85.4185 138.542 85.7786 138.758 86.1964C138.974 86.6143 139.089 87.0781 139.095 87.5501V90.138C139.095 91.055 138.535 91.4829 137.854 91.0957Z" fill="#DEEFFF"/>
</svg>
